<?xml version="1.0" encoding="UTF-8" standalone="no"?>
<svg
        xmlns:dc="http://purl.org/dc/elements/1.1/"
        xmlns:cc="http://creativecommons.org/ns#"
        xmlns:rdf="http://www.w3.org/1999/02/22-rdf-syntax-ns#"
        xmlns:svg="http://www.w3.org/2000/svg"
        xmlns="http://www.w3.org/2000/svg"
        viewBox="0 0 2052.4534 402.64001"
        height="402.64001"
        width="2052.4534"
        xml:space="preserve"
        id="svg2"
        version="1.1"><metadata
     id="metadata8"><rdf:RDF><cc:Work
         rdf:about=""><dc:format>image/svg+xml</dc:format><dc:type
        rdf:resource="http://purl.org/dc/dcmitype/StillImage"/></cc:Work></rdf:RDF></metadata>
    <defs
            id="defs6"/>
    <g
            transform="matrix(1.3333333,0,0,-1.3333333,0,402.64)"
            id="g10"><g
       transform="scale(0.1)"
       id="g12"><path
         id="path14"
         style="fill:#37383c;fill-opacity:1;fill-rule:nonzero;stroke:none"
         d="m 4712.96,162.461 c 144.46,0 253.77,43.828 347.98,91.598 94.14,47.703 163.08,183.031 163.08,296.57 0,54.18 -13.51,98.793 -25.14,139.332 -8.27,28.809 -29.63,78.059 -76.57,123.551 -46.92,45.48 -119.42,87.187 -149.98,100.929 -63.25,28.36 -139.59,74.258 -232.46,112.959 -74.86,30.96 -145.79,62.53 -212.85,94.82 -67.12,32.22 -126.44,69.65 -178.02,112.22 -51.64,42.58 -85.71,70.62 -116.67,130 -30.96,59.32 -56.65,116.42 -56.65,201.56 0,162.54 41.26,274.12 163.83,374.74 122.51,100.62 291.29,144.62 505.03,130.94 52.07,-3.34 108.22,-15.1 160.38,-28.37 63.79,-16.23 104.7,-31.13 148.24,-46.47 44.97,-15.83 165.84,-55.73 165.84,-55.73 l -46.67,-153.33 c -30.95,15.48 -59.8,24.18 -133.33,50 -73.53,25.76 -199.03,70 -340.89,70 -56.78,0 -125.46,1.61 -175.78,-10 -26.61,-6.15 -81.04,-21.91 -130.32,-52.82 -43.87,-27.51 -83.64,-69.1 -96.07,-94.55 -9.62,-19.69 -29.98,-56.51 -37.39,-95.21 -7.49,-39.15 -1.95,-80.22 0.45,-107.42 10,-113.34 116.55,-207.74 174.01,-241.58 60.62,-35.71 89.01,-47.45 147.06,-73.09 58.05,-25.69 124.44,-63.93 199.31,-94.77 77.39,-30.84 157.86,-70.93 222.51,-114.4 42.52,-28.581 105.44,-65.87 161.32,-119.811 55.89,-53.938 104.74,-124.52 119.12,-179.688 11.42,-43.789 34.39,-129 20,-223.332 -21.93,-143.859 -74.55,-257.117 -210,-350 -135.45,-92.8785 -310,-136.6676 -480,-136.6676 -175.47,0 -305.93,20.7109 -383.33,40 -94.6,23.5899 -159.02,45.5706 -189.99,61.0506 l 41.5,163.067 c 7.74,-5.2 120.9,-49.7 164.8,-63.848 43.84,-14.211 96.09,-26.492 156.74,-36.77 60.59,-10.339 130.91,-15.48 210.91,-15.48" /><path
            id="path16"
            style="fill:#37383c;fill-opacity:1;fill-rule:nonzero;stroke:none"
            d="m 8638.85,1704.44 c -10.86,24.59 -74.45,136.67 -171.11,220 -157.19,135.53 -325.55,143.46 -465.39,140.13 -286.77,-6.85 -553.9,-200.13 -680.57,-380.13 -13.33,23.34 -86.39,156.67 -183.05,240 -157.21,135.53 -307.5,143.46 -447.33,140.13 -286.78,-6.85 -515.74,-240.64 -585.74,-332.76 v 292.63 h -170 V 54.4414 h 181.93 l 8.07,1508.3386 c 34.22,52.56 99.18,119.86 172.54,178.44 146.71,119.37 309.81,199.1 497.35,160.31 150.11,-31.05 241.49,-80.78 318.61,-187.71 31.87,-44.21 79.85,-104.05 102.43,-172.42 32.05,-97.06 33.2,-211.32 39.07,-322.56 V 54.4414 h 170 V 1235.14 c 0,91.43 -1.03,159.32 -9.75,212.69 -3.71,49.17 -6.4,95.94 -12.24,129.95 0,0 121.14,117.36 194.5,175.94 146.71,119.37 321.6,193.62 507.85,149.06 130.36,-31.18 259.92,-101.41 337.04,-208.34 77.09,-106.96 113.45,-350.29 119.79,-475.29 l 0.13,-1164.7086 h 182.68 V 1225.14 c -10,232.31 -49.09,348.54 -106.81,479.3"/><path
            id="path18"
            style="fill:#37383c;fill-opacity:1;fill-rule:nonzero;stroke:none"
            d="m 737.125,757.531 c 0,0 -6.512,-409.832 0,-610 214.02,125.989 474.735,301.93 699.995,450 L 1684,596.109 c 20.78,-12.468 35,-76.668 -8.34,-96.668 L 1452.33,501.109 705.664,4.44141 C 660.445,-10.3789 639,14.4414 635.664,41.1094 l 1.461,666.4216 c -449.66,226.731 -798,803.199 -560,1440.009 172.461,461.45 647.734,765 1175.945,848.92 400.56,63.65 831.56,-3.27 1184.05,-198.92 153.55,-85.24 290.89,-199.94 406.01,-349.18 159.2,-206.39 256.78,-478.83 223.99,-830.83 -8.04,-86.28 -66.68,-319.15 -101.78,-328.91 -24.63,-6.85 -52.14,19.71 -65.52,33.19 -19.16,19.3 26.79,89.71 37.3,125.72 40.8,139.79 44.87,271.82 36.58,395.11 -43.5,646.62 -692.28,1052.59 -1336.58,1074.9 C 833.379,2945.36 157.289,2542.3 107.125,1847.53 67.3477,1296.72 335.68,979.449 737.125,757.531"/><path
            id="path20"
            style="fill:#37383c;fill-opacity:1;fill-rule:nonzero;stroke:none"
            d="m 2315.66,157.531 c 0,0 0.19,0.129 0,0.141 -0.19,-0.012 0,-0.141 0,-0.141"/><path
            id="path22"
            style="fill:#37383c;fill-opacity:1;fill-rule:nonzero;stroke:none"
            d="m 2867.12,867.531 c -36.46,-158.09 -136.49,-230.98 -234.69,-318.109 -118.05,-104.731 -226.77,-187.371 -316.77,-270.68 -90,83.309 -196.59,165.949 -314.64,270.68 -98.2,87.129 -206.49,170.019 -242.94,328.109 -29.45,127.689 59.52,329.119 230.18,349.999 135.77,16.62 210.63,-59.21 262.4,-146.42 25.74,-43.35 46.25,-128.45 64.97,-128.45 11.93,0 38.67,86.45 64.41,129.8 51.78,87.22 131.31,161.69 267.08,145.07 170.66,-20.88 249.44,-232.311 220,-359.999 z m -228.49,468.139 c -122.84,12.26 -244.74,-42.45 -323.76,-158.14 -79.02,115.69 -195.11,170.4 -317.95,158.14 -196.33,-19.59 -374.34,-194.7 -348.49,-448.139 15.08,-147.801 108.63,-261.289 212.38,-359.07 98.07,-92.43 203.47,-170.832 296.9,-250.93 38.8,-33.25 127.95,-116.722 157.95,-119.73 20,3.008 121.27,86.48 160.07,119.73 93.44,80.098 200.25,168.5 298.32,260.93 103.75,97.781 187.64,201.269 202.72,349.07 25.85,253.439 -141.81,428.549 -338.14,448.139"/><path
            id="path24"
            style="fill:#53c165;fill-opacity:1;fill-rule:nonzero;stroke:none"
            d="m 12980.7,3003.91 v -89.44 c 0,-23.59 -2.8,-44.04 -8.3,-61.36 -5.6,-17.35 -11.8,-32.23 -18.8,-44.72 L 11605.8,135.59 c -11.1,-22.199 -26,-40.2306 -44.7,-54.0783 -18.7,-13.8711 -43.4,-20.8008 -73.9,-20.8008 H 11350 L 12710.3,2723.11 c 9.7,19.41 19.7,36.73 30.1,52 10.4,15.25 21.2,30.48 32.3,45.77 h -1695.2 c -15.3,0 -28.5,5.51 -39.5,16.64 -11.2,11.07 -16.7,24.24 -16.7,39.51 v 126.88 h 1959.4"/><path
            id="path26"
            style="fill:#53c165;fill-opacity:1;fill-rule:nonzero;stroke:none"
            d="m 15393.4,3003.91 v -89.44 c 0,-23.59 -2.8,-44.04 -8.3,-61.36 -5.6,-17.35 -11.8,-32.23 -18.7,-44.72 L 14018.5,135.59 c -11.1,-22.199 -26,-40.2306 -44.7,-54.0783 -18.7,-13.8711 -43.3,-20.8008 -73.8,-20.8008 h -137.3 L 15123,2723.11 c 9.7,19.41 19.8,36.73 30.2,52 10.4,15.25 21.1,30.48 32.2,45.77 h -1695.2 c -15.2,0 -28.4,5.51 -39.5,16.64 -11.1,11.07 -16.6,24.24 -16.6,39.51 v 126.88 h 1959.3"/><path
            id="path28"
            style="fill:#37383c;fill-opacity:1;fill-rule:nonzero;stroke:none"
            d="m 9873.48,167.961 c 144.42,0 253.72,43.828 348.02,91.59 94.1,47.711 163,183.039 163,296.578 0,54.18 -13.5,98.793 -25.1,139.32 -8.3,28.821 -29.6,78.071 -76.6,123.551 -46.9,45.492 -119.4,87.199 -149.9,100.941 -63.3,28.36 -139.64,74.258 -232.51,112.959 -74.86,30.96 -145.79,62.52 -212.86,94.81 -67.11,32.23 -126.43,69.66 -178.01,112.23 -51.64,42.57 -85.71,70.62 -116.67,130 -30.97,59.32 -56.65,116.42 -56.65,201.56 0,162.54 41.25,274.12 163.83,374.74 122.5,100.62 291.29,144.62 505.07,130.93 52,-3.33 108.2,-15.09 160.3,-28.36 63.8,-16.23 104.7,-31.13 148.3,-46.47 45,-15.84 165.8,-55.73 165.8,-55.73 l -46.6,-153.33 c -31,15.47 -59.8,24.18 -133.4,50 -73.5,25.76 -199,70 -340.88,70 -56.77,0 -125.46,1.61 -175.77,-10 -26.61,-6.15 -81.04,-21.91 -130.32,-52.82 -43.87,-27.52 -83.64,-69.1 -96.07,-94.55 -9.61,-19.69 -29.99,-56.51 -37.39,-95.21 -7.49,-39.15 -1.95,-80.22 0.45,-107.42 10,-113.34 116.54,-207.74 174.01,-241.58 60.62,-35.71 89.01,-47.45 147.06,-73.09 58.04,-25.7 124.44,-63.93 199.31,-94.77 77.4,-30.84 157.9,-70.93 222.5,-114.4 42.5,-28.58 105.4,-65.881 161.3,-119.811 55.9,-53.938 104.8,-124.52 119.2,-179.688 11.4,-43.789 34.3,-129 20,-223.332 -22,-143.859 -74.6,-257.117 -210,-350 -135.5,-92.8902 -310,-136.6676 -480.05,-136.6676 -175.48,0 -305.93,20.6992 -383.33,40 -94.6,23.5781 -159.02,45.5706 -189.99,61.0506 l 41.5,163.067 c 7.74,-5.2 120.89,-49.707 164.8,-63.86 43.84,-14.199 96.08,-26.48 156.74,-36.758 60.58,-10.339 130.91,-15.48 210.91,-15.48"/></g></g></svg>